<?xml version="1.0" encoding="utf-8"?><!-- Uploaded to: SVG Repo, www.svgrepo.com, Generator: SVG Repo Mixer Tools -->
<svg width="800px" height="800px" viewBox="0 0 24 24" fill="none" xmlns="http://www.w3.org/2000/svg">
<path fill-rule="evenodd" clip-rule="evenodd" d="M15.75 6C15.75 3.92893 14.0711 2.25 12 2.25C9.92893 2.25 8.25 3.92893 8.25 6C8.25 8.07107 9.92893 9.75 12 9.75C14.0711 9.75 15.75 8.07107 15.75 6ZM12 3.75C13.2426 3.75 14.25 4.75736 14.25 6C14.25 7.24264 13.2426 8.25 12 8.25C10.7574 8.25 9.75 7.24264 9.75 6C9.75 4.75736 10.7574 3.75 12 3.75Z" fill="#1C274C"/>
<path fill-rule="evenodd" clip-rule="evenodd" d="M9.25 18C9.25 15.9289 7.57107 14.25 5.5 14.25C3.42893 14.25 1.75 15.9289 1.75 18C1.75 20.0711 3.42893 21.75 5.5 21.75C7.57107 21.75 9.25 20.0711 9.25 18ZM5.5 15.75C6.74264 15.75 7.75 16.7574 7.75 18C7.75 19.2426 6.74264 20.25 5.5 20.25C4.25736 20.25 3.25 19.2426 3.25 18C3.25 16.7574 4.25736 15.75 5.5 15.75Z" fill="#1C274C"/>
<path fill-rule="evenodd" clip-rule="evenodd" d="M18.5 14.25C20.5711 14.25 22.25 15.9289 22.25 18C22.25 20.0711 20.5711 21.75 18.5 21.75C16.4289 21.75 14.75 20.0711 14.75 18C14.75 15.9289 16.4289 14.25 18.5 14.25ZM20.75 18C20.75 16.7574 19.7426 15.75 18.5 15.75C17.2574 15.75 16.25 16.7574 16.25 18C16.25 19.2426 17.2574 20.25 18.5 20.25C19.7426 20.25 20.75 19.2426 20.75 18Z" fill="#1C274C"/>
<path d="M7.20468 7.56231C7.51523 7.28821 7.54478 6.81426 7.27069 6.5037C6.99659 6.19315 6.52264 6.1636 6.21208 6.43769C4.39676 8.03991 3.25 10.3865 3.25 13C3.25 13.4142 3.58579 13.75 4 13.75C4.41421 13.75 4.75 13.4142 4.75 13C4.75 10.8347 5.69828 8.89187 7.20468 7.56231Z" fill="#1C274C"/>
<path d="M17.7879 6.43769C17.4774 6.1636 17.0034 6.19315 16.7293 6.5037C16.4552 6.81426 16.4848 7.28821 16.7953 7.56231C18.3017 8.89187 19.25 10.8347 19.25 13C19.25 13.4142 19.5858 13.75 20 13.75C20.4142 13.75 20.75 13.4142 20.75 13C20.75 10.3865 19.6032 8.03991 17.7879 6.43769Z" fill="#1C274C"/>
<path d="M10.1869 20.0217C9.7858 19.9184 9.37692 20.1599 9.27367 20.561C9.17043 20.9622 9.41192 21.3711 9.81306 21.4743C10.5129 21.6544 11.2458 21.75 12 21.75C12.7542 21.75 13.4871 21.6544 14.1869 21.4743C14.5881 21.3711 14.8296 20.9622 14.7263 20.561C14.6231 20.1599 14.2142 19.9184 13.8131 20.0217C13.2344 20.1706 12.627 20.25 12 20.25C11.373 20.25 10.7656 20.1706 10.1869 20.0217Z" fill="#1C274C"/>
</svg>