<?xml version="1.0" encoding="utf-8"?><!-- Uploaded to: SVG Repo, www.svgrepo.com, Generator: SVG Repo Mixer Tools -->
<svg width="800px" height="800px" viewBox="0 0 24 24" fill="none" xmlns="http://www.w3.org/2000/svg">
<path fill-rule="evenodd" clip-rule="evenodd" d="M10.0068 3.44714C10.3121 3.72703 10.3328 4.20146 10.0529 4.5068L5.70494 9.25H20C20.4142 9.25 20.75 9.58579 20.75 10C20.75 10.4142 20.4142 10.75 20 10.75H4.00002C3.70259 10.75 3.43327 10.5742 3.3135 10.302C3.19374 10.0298 3.24617 9.71246 3.44715 9.49321L8.94715 3.49321C9.22704 3.18787 9.70147 3.16724 10.0068 3.44714Z" fill="#1C274C"/>
<path fill-rule="evenodd" clip-rule="evenodd" d="M20.6865 13.698C20.5668 13.4258 20.2974 13.25 20 13.25L4.00001 13.25C3.5858 13.25 3.25001 13.5858 3.25001 14C3.25001 14.4142 3.5858 14.75 4.00001 14.75L18.2951 14.75L13.9472 19.4932C13.6673 19.7985 13.6879 20.273 13.9932 20.5529C14.2986 20.8328 14.773 20.8121 15.0529 20.5068L20.5529 14.5068C20.7539 14.2876 20.8063 13.9703 20.6865 13.698Z" fill="#1C274C"/>
</svg>