<?xml version="1.0" encoding="UTF-8" standalone="no"?>
<!-- Created with Inkscape (http://www.inkscape.org/) -->

<svg
   width="10.005638mm"
   height="10.005638mm"
   viewBox="0 0 10.005638 10.005638"
   version="1.1"
   id="svg5"
   inkscape:version="1.2.2 (b0a8486541, 2022-12-01)"
   sodipodi:docname="logo.svg"
   xmlns:inkscape="http://www.inkscape.org/namespaces/inkscape"
   xmlns:sodipodi="http://sodipodi.sourceforge.net/DTD/sodipodi-0.dtd"
   xmlns="http://www.w3.org/2000/svg"
   xmlns:svg="http://www.w3.org/2000/svg">
  <sodipodi:namedview
     id="namedview7"
     pagecolor="#ffffff"
     bordercolor="#666666"
     borderopacity="1.0"
     inkscape:showpageshadow="2"
     inkscape:pageopacity="0.0"
     inkscape:pagecheckerboard="0"
     inkscape:deskcolor="#d1d1d1"
     inkscape:document-units="mm"
     showgrid="false"
     inkscape:zoom="8.0908238"
     inkscape:cx="33.741929"
     inkscape:cy="18.045134"
     inkscape:window-width="1596"
     inkscape:window-height="861"
     inkscape:window-x="0"
     inkscape:window-y="0"
     inkscape:window-maximized="1"
     inkscape:current-layer="text1626" />
  <defs
     id="defs2" />
  <g
     inkscape:label="Layer 1"
     inkscape:groupmode="layer"
     id="layer1"
     transform="translate(-73.973988,-104.82479)">
    <path
       id="path236"
       style="fill:#ededed;stroke-width:0.499999;stroke-linecap:round;stroke-linejoin:round"
       d="m 83.979626,109.82761 a 5.0028191,5.0028191 0 0 1 -5.002819,5.00282 5.0028191,5.0028191 0 0 1 -5.002819,-5.00282 5.0028191,5.0028191 0 0 1 5.002819,-5.00282 5.0028191,5.0028191 0 0 1 5.002819,5.00282 z" />
    <g
       aria-label="LOGO"
       id="text1626"
       style="font-size:3.40926px;line-height:1.25;fill:#999999;stroke-width:0.232449">
      <path
         d="m 75.799376,111.08051 v -2.5058 h 0.422748 v 2.14783 h 0.818223 v 0.35797 z"
         style="font-weight:800;font-family:Iosevka;-inkscape-font-specification:'Iosevka Ultra-Bold'"
         id="path3278" />
      <path
         d="m 78.063125,111.10779 q -0.09546,0 -0.190919,-0.0205 -0.09546,-0.017 -0.177281,-0.0648 -0.08182,-0.0511 -0.146598,-0.12274 -0.06478,-0.075 -0.102278,-0.16023 -0.0375,-0.0886 -0.05114,-0.1841 -0.01364,-0.0955 -0.01364,-0.19092 v -1.07392 q 0,-0.0955 0.01364,-0.19092 0.01364,-0.0955 0.05114,-0.18069 0.0375,-0.0886 0.102278,-0.16023 0.06478,-0.075 0.146598,-0.12274 0.08182,-0.0511 0.177281,-0.0682 0.09546,-0.0205 0.190919,-0.0205 0.09546,0 0.190918,0.0205 0.09546,0.017 0.177282,0.0682 0.08182,0.0477 0.146598,0.12274 0.06478,0.0716 0.102278,0.16023 0.0375,0.0852 0.05114,0.18069 0.01364,0.0955 0.01364,0.19092 v 1.07392 q 0,0.0955 -0.01364,0.19092 -0.01364,0.0955 -0.05114,0.1841 -0.0375,0.0852 -0.102278,0.16023 -0.06478,0.0716 -0.146598,0.12274 -0.08182,0.0477 -0.177282,0.0648 -0.09546,0.0205 -0.190918,0.0205 z m 0,-0.35798 q 0.04432,0 0.08523,-0.0136 0.04091,-0.017 0.07159,-0.0477 0.03409,-0.0307 0.05114,-0.0682 0.02045,-0.0409 0.03068,-0.0818 0.01364,-0.0443 0.01705,-0.0886 0.0034,-0.0443 0.0034,-0.0852 v -1.07392 q 0,-0.0409 -0.0034,-0.0852 -0.0034,-0.0443 -0.01705,-0.0852 -0.01023,-0.0443 -0.03068,-0.0818 -0.01705,-0.0409 -0.05114,-0.0716 -0.03068,-0.0307 -0.07159,-0.0443 -0.04091,-0.017 -0.08523,-0.017 -0.04432,0 -0.08523,0.017 -0.04091,0.0136 -0.075,0.0443 -0.03068,0.0307 -0.05114,0.0716 -0.01705,0.0375 -0.03068,0.0818 -0.01023,0.0409 -0.01364,0.0852 -0.0034,0.0443 -0.0034,0.0852 v 1.07392 q 0,0.0409 0.0034,0.0852 0.0034,0.0443 0.01364,0.0886 0.01364,0.0409 0.03068,0.0818 0.02046,0.0375 0.05114,0.0682 0.03409,0.0307 0.075,0.0477 0.04091,0.0136 0.08523,0.0136 z"
         style="font-weight:800;font-family:Iosevka;-inkscape-font-specification:'Iosevka Ultra-Bold'"
         id="path3280" />
      <path
         d="m 79.587064,111.10779 q -0.08523,0 -0.167054,-0.0273 -0.07841,-0.0307 -0.139779,-0.0886 -0.05796,-0.0614 -0.09887,-0.13637 -0.0375,-0.0784 -0.06137,-0.15682 -0.02045,-0.0818 -0.02727,-0.16706 -0.0068,-0.0852 -0.0068,-0.16705 v -1.07392 q 0,-0.0955 0.01364,-0.18751 0.01364,-0.0955 0.05114,-0.1841 0.0375,-0.0886 0.09887,-0.16023 0.06137,-0.075 0.143189,-0.12274 0.08182,-0.0511 0.177282,-0.0682 0.09546,-0.0205 0.190918,-0.0205 0.08864,0 0.177282,0.017 0.08864,0.017 0.167054,0.058 0.07841,0.0409 0.139779,0.10568 0.06478,0.0648 0.105687,0.1466 0.04091,0.0784 0.05796,0.16706 0.02045,0.0886 0.02045,0.17728 h -0.422748 q 0,-0.0545 -0.01364,-0.1091 -0.01023,-0.058 -0.04091,-0.10569 -0.03068,-0.0477 -0.08523,-0.0716 -0.05114,-0.0273 -0.105687,-0.0273 -0.04432,0 -0.08523,0.017 -0.04091,0.0136 -0.07159,0.0477 -0.03068,0.0307 -0.05114,0.0716 -0.01705,0.0375 -0.02727,0.0784 -0.01023,0.0409 -0.01364,0.0852 -0.0034,0.0443 -0.0034,0.0852 v 1.07392 q 0,0.0648 0.0068,0.12955 0.01023,0.0648 0.04091,0.12273 0.03068,0.058 0.08523,0.0955 0.05796,0.0375 0.122734,0.0375 0.04091,0 0.08182,-0.017 0.04091,-0.017 0.06818,-0.0477 0.02727,-0.0341 0.04432,-0.0716 0.01705,-0.0409 0.02727,-0.0818 0.01023,-0.0409 0.01023,-0.0818 0.0034,-0.0443 0.0034,-0.0852 v -0.31706 h -0.23183 v -0.35798 h 0.654578 v 1.39098 h -0.385247 v -0.38865 q -0.02045,0.0818 -0.05796,0.16023 -0.03409,0.075 -0.09205,0.13637 -0.05796,0.058 -0.13637,0.0886 -0.07841,0.0307 -0.163645,0.0307 z"
         style="font-weight:800;font-family:Iosevka;-inkscape-font-specification:'Iosevka Ultra-Bold'"
         id="path3282" />
      <path
         d="m 81.472385,111.10779 q -0.09546,0 -0.190919,-0.0205 -0.09546,-0.017 -0.177281,-0.0648 -0.08182,-0.0511 -0.146598,-0.12274 -0.06478,-0.075 -0.102278,-0.16023 -0.0375,-0.0886 -0.05114,-0.1841 -0.01364,-0.0955 -0.01364,-0.19092 v -1.07392 q 0,-0.0955 0.01364,-0.19092 0.01364,-0.0955 0.05114,-0.18069 0.0375,-0.0886 0.102278,-0.16023 0.06478,-0.075 0.146598,-0.12274 0.08182,-0.0511 0.177281,-0.0682 0.09546,-0.0205 0.190919,-0.0205 0.09546,0 0.190919,0.0205 0.09546,0.017 0.177281,0.0682 0.08182,0.0477 0.146598,0.12274 0.06478,0.0716 0.102278,0.16023 0.0375,0.0852 0.05114,0.18069 0.01364,0.0955 0.01364,0.19092 v 1.07392 q 0,0.0955 -0.01364,0.19092 -0.01364,0.0955 -0.05114,0.1841 -0.0375,0.0852 -0.102278,0.16023 -0.06478,0.0716 -0.146598,0.12274 -0.08182,0.0477 -0.177281,0.0648 -0.09546,0.0205 -0.190919,0.0205 z m 0,-0.35798 q 0.04432,0 0.08523,-0.0136 0.04091,-0.017 0.0716,-0.0477 0.03409,-0.0307 0.05114,-0.0682 0.02045,-0.0409 0.03068,-0.0818 0.01364,-0.0443 0.01705,-0.0886 0.0034,-0.0443 0.0034,-0.0852 v -1.07392 q 0,-0.0409 -0.0034,-0.0852 -0.0034,-0.0443 -0.01705,-0.0852 -0.01023,-0.0443 -0.03068,-0.0818 -0.01705,-0.0409 -0.05114,-0.0716 -0.03068,-0.0307 -0.0716,-0.0443 -0.04091,-0.017 -0.08523,-0.017 -0.04432,0 -0.08523,0.017 -0.04091,0.0136 -0.075,0.0443 -0.03068,0.0307 -0.05114,0.0716 -0.01705,0.0375 -0.03068,0.0818 -0.01023,0.0409 -0.01364,0.0852 -0.0034,0.0443 -0.0034,0.0852 v 1.07392 q 0,0.0409 0.0034,0.0852 0.0034,0.0443 0.01364,0.0886 0.01364,0.0409 0.03068,0.0818 0.02045,0.0375 0.05114,0.0682 0.03409,0.0307 0.075,0.0477 0.04091,0.0136 0.08523,0.0136 z"
         style="font-weight:800;font-family:Iosevka;-inkscape-font-specification:'Iosevka Ultra-Bold'"
         id="path3284" />
    </g>
  </g>
</svg>
